<?xml version="1.0" encoding="utf-8"?>
<svg xmlns="http://www.w3.org/2000/svg" version="1.1" xlink="http://www.w3.org/1999/xlink" xmlns:svgjs="http://svgjs.com/svgjs" width="100%" height="100%" viewBox="7.999988555908203 4 84.00001525878906 92.00025177001953">
    <g fill="#127845">
        <path style="text-indent:0;text-transform:none;block-progression:tb;" d="M50 4c-7.696 0-14 6.334-14 14.03 0 7.694 6.304 13.997 14 13.997s14-6.303 14-13.998C64 10.334 57.696 4 50 4zm0 6.03c4.454 0 8 3.546 8 8 0 4.452-3.546 7.967-8 7.967-4.454 0-8-3.515-8-7.968a7.954 7.954 0 0 1 8-7.999zm36.719 11.967C74.249 21.85 62 28.015 50 37.37c-12-9.355-23-15.354-39.219-15.248-1.496.11-2.785 1.5-2.781 3v51.96c.002 1.434 1.173 2.775 2.594 2.97 13.657 1.901 23.952 5.633 37.656 15.403 1.012.727 2.488.727 3.5 0 13.702-9.77 23.997-13.502 37.656-15.404 1.42-.194 2.592-1.535 2.594-2.968V25.122c.004-1.5-1.285-2.89-2.781-3a38.89 38.89 0 0 0-2.5-.125zM48.156 43.4c1.045.814 2.643.814 3.688 0C64.536 33.49 75.069 28.154 86 28.09v46.525c-12.553 2.054-23.399 6.135-36 14.81-12.603-8.675-23.448-12.756-36-14.81V28.09c12-.075 24.942 8.264 34.156 15.31z" overflow="visible" color="#000"></path>
    </g>
</svg>