<?xml version="1.0" encoding="utf-8"?>
<svg xmlns="http://www.w3.org/2000/svg" version="1.1" xlink="http://www.w3.org/1999/xlink" xmlns:svgjs="http://svgjs.com/svgjs" width="100%" height="100%" viewBox="12.199999809265137 12.099997520446777 75.5999984741211 75.69998931884766">\
    <g fill="#34a7f0">
        <path d="M19.4 63.1h5.1v5.2c0 4 3.2 7.2 7.2 7.2h5.1v5.1c0 4 3.2 7.2 7.2 7.2h36.6c4 0 7.2-3.2 7.2-7.2V44c0-4-3.2-7.2-7.2-7.2h-5.2v-5.2c0-4-3.2-7.2-7.2-7.2H63v-5.1c0-4-3.2-7.2-7.2-7.2H19.4c-4 0-7.2 3.2-7.2 7.2V56c0 3.9 3.2 7.1 7.2 7.1zm42.7-26.2H44c-4 0-7.2 3.2-7.2 7.2v18.1H25.5V31.7c0-3.4 2.8-6.2 6.2-6.2h30.4v11.4zM37.9 63.1H56c4 0 7.2-3.2 7.2-7.2v-18h11.3v30.4c0 3.4-2.8 6.2-6.2 6.2H37.9V63.1z"></path>
    </g>
</svg>